<?xml version="1.0" encoding="UTF-8"?>
<svg version="1.1" xmlns="http://www.w3.org/2000/svg" width="269" height="270">
<path d="M0 0 C88.77 0 177.54 0 269 0 C269 89.1 269 178.2 269 270 C180.23 270 91.46 270 0 270 C0 180.9 0 91.8 0 0 Z " fill="#F86B21" transform="translate(0,0)"/>
<path d="M0 0 C1.26807495 0.06417114 1.26807495 0.06417114 2.56176758 0.12963867 C3.45919678 0.18224854 4.35662598 0.2348584 5.28125 0.2890625 C6.19092529 0.34231689 7.10060059 0.39557129 8.0378418 0.45043945 C9.82794692 0.55745748 11.61791238 0.66684273 13.40771484 0.77880859 C15.29747416 0.88649494 17.18979047 0.94906765 19.08203125 0.99609375 C24.26498047 1.21372925 27.27726043 2.35508788 31.13354492 5.83374023 C34.46580124 10.04090515 35.33499396 15.21512898 36.53125 20.3515625 C36.82290039 21.51429687 37.11455078 22.67703125 37.41503906 23.875 C39.21634359 31.16144944 40.8024759 38.47510558 42.16796875 45.85546875 C42.90900992 49.55123459 43.9437776 53.09480712 45.0859375 56.68359375 C46.1380473 60.05862014 46.95400111 63.47779788 47.78125 66.9140625 C49.34755998 65.34775252 49.08750902 63.52798909 49.34375 61.3515625 C51.85890473 47.25200898 59.7745607 35.40275264 71.32421875 27.08203125 C76.51250766 23.7760053 81.82630754 21.44975267 87.78125 19.9140625 C88.49410156 19.72972656 89.20695312 19.54539062 89.94140625 19.35546875 C104.69820611 17.06177084 120.29170334 18.22756119 132.78125 26.9140625 C142.12365299 34.21192745 149.02865648 42.21692021 151.78125 53.9140625 C152.20450176 57.86190306 152.24678075 61.75893655 152.21875 65.7265625 C152.23873047 66.74943359 152.25871094 67.77230469 152.27929688 68.82617188 C152.27833008 70.3024707 152.27833008 70.3024707 152.27734375 71.80859375 C152.27919678 72.69393799 152.2810498 73.57928223 152.28295898 74.49145508 C151.5951224 77.8128188 150.45475013 78.84183499 147.78125 80.9140625 C144.49090576 81.39508057 144.49090576 81.39508057 140.53417969 81.36816406 C139.81183136 81.36874817 139.08948303 81.36933228 138.34524536 81.36993408 C135.96404512 81.3671533 133.5841058 81.33606389 131.203125 81.3046875 C129.54975061 81.29722503 127.89636736 81.29153213 126.24298096 81.28753662 C121.89607222 81.2722806 117.54970001 81.23299945 113.20300293 81.1887207 C108.76561745 81.14776708 104.32814508 81.12952544 99.890625 81.109375 C91.18725407 81.0665048 82.48431882 80.99825434 73.78125 80.9140625 C74.55174786 83.16531682 75.33013692 85.41330276 76.11328125 87.66015625 C76.3292395 88.29385132 76.54519775 88.92754639 76.7677002 89.58044434 C79.46694277 97.27717038 82.77425567 101.07678708 89.96875 104.7890625 C98.68023347 108.8303344 108.18001402 109.39274148 117.48046875 106.9375 C122.13750539 105.17420854 126.51191907 103.16316106 130.78125 100.6015625 C133.9768516 98.8040366 135.21408128 98.3950008 138.78125 98.9140625 C140.6171875 100.70703125 140.6171875 100.70703125 142.15625 103.1015625 C142.67960938 103.87886719 143.20296875 104.65617187 143.7421875 105.45703125 C145.01991662 108.4784283 144.86275482 109.84560696 143.78125 112.9140625 C138.79091262 119.48709588 129.38314307 123.38009814 121.78125 125.9140625 C130.36125 125.9140625 138.94125 125.9140625 147.78125 125.9140625 C150.21982736 118.65089605 150.21982736 118.65089605 152.32421875 111.33203125 C152.58936279 110.33139648 152.85450684 109.33076172 153.12768555 108.29980469 C153.40523682 107.24438477 153.68278809 106.18896484 153.96875 105.1015625 C157.42550486 92.10573676 161.0576534 79.16265947 164.83349609 66.25585938 C165.50241872 63.89722647 166.131914 61.52723944 166.73291016 59.15039062 C167.05437012 57.91224609 167.37583008 56.67410156 167.70703125 55.3984375 C167.98587158 54.27663086 168.26471191 53.15482422 168.55200195 51.99902344 C170.01759819 48.32091539 171.73275946 46.41347457 174.78125 43.9140625 C178.58720431 43.37989347 180.77570927 43.35836894 184.15625 45.2265625 C187.08396696 48.26688396 186.9195197 51.4399049 187.01171875 55.48828125 C186.42092063 61.70668181 184.27465851 67.85149834 182.59375 73.8515625 C182.38234375 74.60953125 182.1709375 75.3675 181.953125 76.1484375 C181.23053772 78.73736448 180.50608424 81.32576374 179.78125 83.9140625 C179.50587402 84.89777832 179.23049805 85.88149414 178.94677734 86.89501953 C176.54469223 95.47504709 176.54469223 95.47504709 175.37719727 99.63647461 C174.01710571 104.48661242 172.66136404 109.33771733 171.328125 114.1953125 C164.25291646 139.97225707 164.25291646 139.97225707 155.78125 144.9140625 C151.80893765 146.23816662 147.98985266 146.08652971 143.84692383 146.10693359 C142.47565842 146.11919983 142.47565842 146.11919983 141.07669067 146.13171387 C138.04722751 146.15655268 135.0178112 146.17308128 131.98828125 146.1875 C130.95292425 146.19282368 129.91756725 146.19814735 128.8508358 146.20363235 C123.36923335 146.2303591 117.88765363 146.24973436 112.40600586 146.26416016 C107.87324824 146.27749371 103.34094139 146.30533663 98.80834961 146.34619141 C93.33241553 146.39554851 87.85689006 146.42028529 82.38074303 146.42738724 C80.29678578 146.43409362 78.21283742 146.44929966 76.12900734 146.47327805 C73.20637417 146.50498595 70.28530968 146.50495758 67.36254883 146.49755859 C66.50770401 146.51396393 65.65285919 146.53036926 64.77210999 146.54727173 C57.8010591 146.4753262 53.20990229 144.05676813 48.10870075 139.38100243 C46.38129015 137.47207467 45.96078432 135.82058427 45.31640625 133.3359375 C45.07583496 132.42980713 44.83526367 131.52367676 44.58740234 130.59008789 C44.34199707 129.62449951 44.0965918 128.65891113 43.84375 127.6640625 C43.58287598 126.67204834 43.32200195 125.68003418 43.05322266 124.65795898 C42.52919577 122.66287452 42.00927832 120.66670575 41.49365234 118.66943359 C40.57048046 115.09886545 39.61380415 111.53805837 38.65625 107.9765625 C38.34171875 106.78933594 38.0271875 105.60210937 37.703125 104.37890625 C37.09630301 102.09818124 36.48191329 99.81945411 35.859375 97.54296875 C33.35935028 88.35230409 31.12686578 79.11069502 28.97509766 69.83251953 C27.90148712 65.26985451 26.79776906 60.78500119 25.2578125 56.35546875 C23.48123868 51.23995232 22.3597689 46.01412325 21.21875 40.7265625 C19.68670035 33.53696132 19.68670035 33.53696132 17.62890625 26.48828125 C16.78125 23.9140625 16.78125 23.9140625 16.78125 19.9140625 C15.79125 19.86507812 14.80125 19.81609375 13.78125 19.765625 C-4.12860134 18.79519629 -4.12860134 18.79519629 -8.71875 14.6640625 C-10.52936196 11.34460725 -10.84002371 9.64170476 -10.21875 5.9140625 C-7.18370047 1.36148821 -5.41267055 -0.28890415 0 0 Z " fill="#FBF5F0" transform="translate(43.21875,44.0859375)"/>
<path d="M0 0 C5.08224096 3.56861702 7.92994187 8.36614045 9.796875 14.26171875 C9.796875 17.56171875 9.796875 20.86171875 9.796875 24.26171875 C-7.693125 24.26171875 -25.183125 24.26171875 -43.203125 24.26171875 C-41.57911397 16.95366914 -40.29340296 11.3971357 -36.203125 5.26171875 C-35.543125 5.26171875 -34.883125 5.26171875 -34.203125 5.26171875 C-34.203125 4.60171875 -34.203125 3.94171875 -34.203125 3.26171875 C-24.65031977 -4.01660904 -10.81954469 -5.79618466 0 0 Z " fill="#F76C23" transform="translate(160.203125,84.73828125)"/>
<path d="M0 0 C4.30938639 2.30905927 6.96217143 5.31352857 9.5 9.4375 C10.75392351 15.86385797 10.58413527 20.43841079 7 26 C3.19892213 30.52020071 -0.04985951 32.55669766 -5.94921875 33.21875 C-10.69942183 33.43590214 -13.9441054 32.67320326 -18 30 C-22.89284868 24.69941393 -24.48001342 20.59463366 -24.3125 13.46484375 C-23.84373871 9.7674891 -22.4462268 7.76809875 -20 5 C-19.21625 4.05125 -18.4325 3.1025 -17.625 2.125 C-12.68509017 -1.7311541 -5.83486429 -1.05665538 0 0 Z " fill="#FBF5EF" transform="translate(119,197)"/>
<path d="M0 0 C5.13048934 4.33178678 7.22324622 7.72019073 7.8828125 14.42578125 C7.71373582 20.38855212 5.22255541 24.94140691 1.0078125 29.05078125 C-3.76941442 32.03654808 -8.97812725 32.27459591 -14.4921875 31.61328125 C-19.81460214 29.79409656 -22.8018439 26.47659469 -25.4921875 21.61328125 C-26.84795882 17.54596728 -27.02380338 13.86620829 -26.4921875 9.61328125 C-24.34784563 5.55434842 -21.32542232 0.53470939 -16.7265625 -0.9609375 C-11.10845369 -2.03152117 -5.1491239 -2.86510813 0 0 Z " fill="#FBF4EF" transform="translate(189.4921875,198.38671875)"/>
<path d="M0 0 C1.54754313 3.09508627 2.38064921 5.25093641 3.1875 8.5 C7.09896076 21.75985197 15.40564673 31.89555475 27.32421875 38.6796875 C31.74072111 40.85892516 36.31898294 42.48712376 41 44 C41 44.33 41 44.66 41 45 C27.47 45 13.94 45 0 45 C0 30.15 0 15.3 0 0 Z " fill="#FEF8F2" transform="translate(0,225)"/>
<path d="M0 0 C13.53 0 27.06 0 41 0 C37.89475143 2.07016571 35.05007432 3.1272296 31.5625 4.4375 C18.94402852 9.56622373 10.27127447 19.45745105 4.25 31.5 C2.78099958 35.61320119 1.82547077 39.71726344 1 44 C0.67 44 0.34 44 0 44 C0 29.48 0 14.96 0 0 Z " fill="#FEF8F3" transform="translate(0,0)"/>
<path d="M0 0 C13.2 0 26.4 0 40 0 C40 12.87 40 25.74 40 39 C38.36828981 36.55243471 37.38758196 34.61790797 36.3125 31.9375 C30.98678732 19.87632717 22.30210803 10.05627926 10 5 C9.10152344 4.62875 8.20304688 4.2575 7.27734375 3.875 C4.85916142 2.89548311 2.43456666 1.93790683 0 1 C0 0.67 0 0.34 0 0 Z " fill="#FEF8F2" transform="translate(229,0)"/>
<path d="M0 0 C0.33 0 0.66 0 1 0 C1 12.54 1 25.08 1 38 C-12.2 38 -25.4 38 -39 38 C-36.36307233 36.24204822 -34.37465579 35.35441241 -31.4375 34.3125 C-19.13525652 29.44174275 -8.20116808 19.67143902 -2.875 7.41015625 C-1.88193197 4.95162325 -0.92343397 2.4854127 0 0 Z " fill="#FDF7F1" transform="translate(268,232)"/>
<path d="M0 0 C2.93323647 2.38751806 5.68255037 4.65609623 8.25 7.4375 C15.06877864 13.79136191 23.23058053 17.16577698 32 20 C32 20.33 32 20.66 32 21 C27.72939382 21.11589162 23.45919016 21.18714802 19.1875 21.25 C17.97255859 21.28351563 16.75761719 21.31703125 15.50585938 21.3515625 C13.76079102 21.37089844 13.76079102 21.37089844 11.98046875 21.390625 C10.37014771 21.4220459 10.37014771 21.4220459 8.72729492 21.45410156 C6 21 6 21 4.16967773 19.12133789 C2.87477183 16.77288508 2.33212765 14.82637324 1.875 12.1875 C1.7203125 11.31738281 1.565625 10.44726562 1.40625 9.55078125 C0.89972761 6.37040507 0.41654594 3.19351887 0 0 Z " fill="#F5702B" transform="translate(101,150)"/>
<path d="M0 0 C0 0.33 0 0.66 0 1 C-1.5778125 1.0928125 -1.5778125 1.0928125 -3.1875 1.1875 C-7.71428491 2.15222465 -9.19813256 3.3740539 -12 7 C-12.87238858 9.67790896 -12.87238858 9.67790896 -13 12 C-13.33 12 -13.66 12 -14 12 C-14.35671933 8.16526716 -14.29771416 6.44657125 -12.125 3.1875 C-8.26254607 -0.78855552 -5.31022394 -0.08564877 0 0 Z " fill="#F7D5BD" transform="translate(47,44)"/>
<path d="M0 0 C0.66 0.33 1.32 0.66 2 1 C-1.465 3.97 -1.465 3.97 -5 7 C-5.66 6.67 -6.32 6.34 -7 6 C-4.69 4.02 -2.38 2.04 0 0 Z " fill="#F07C40" transform="translate(24,7)"/>
</svg>
